<svg width="258" height="264" viewBox="0 0 258 264" fill="none" xmlns="http://www.w3.org/2000/svg">
<path d="M128 32.25H132.75L139 32.75L146.25 34L153.5 35.5L162.5 38.5L167.5 40.75L171.75 42.75L177.25 46L182 49.25L186.5 52.75L190 55.75L193.75 59.25L196.75 62.25L198.5 64.25L202 68.75L204 71.75L206.75 76L209 79.75L211 83.75L213 88L215.5 94.5L218.25 104.5L219.25 110.75L219.75 116.75V129L219.25 134.75L218.5 140L217 146L215.25 152L213.5 156.25L211.5 161L209.25 165.25L207.75 168L205.75 171.25L202.75 175.75L198.75 181L194.75 185.25L189.5 190.5L186.75 192.75L182.75 196L179.5 198.25L175.25 201L170.5 203.75L164.25 206.75L155.5 210L143.5 213L138 213.75L134.75 214H125.5L118.5 213.5L112.5 212.5L102.75 210L98.5 208.5L92.5 206L88.25 203.75L85.75 202.5L82.5 200.5L79 198.25L75.5 195.75L71 192.25L67.5 189L65.5 187.25L62.75 184.5L61 182.5L58.75 180L56.5 177L53.75 173L50.75 168.25L47 161.25L43.5 152.75L41.25 145.25L40.25 141L39.5 136.5L38.75 130V117L39.75 107.25L41 101L43.75 92L45.75 87L48.75 80.75L51.75 75.5L55.5 70L57.75 67L60 64.25L63.75 60.25L67.5 56.5L69.5 54.75L73.5 51.5L78 48.25L82.75 45.25L87.5 42.5L95.25 39L103 36.25L110 34.5L118.25 33L122.25 32.5L128 32.25Z" fill="#FCE0B1"/>
<path d="M128 32.25H132.75L139 32.75L146.25 34L153.5 35.5L162.5 38.5L167.5 40.75L171.75 42.75L177.25 46L182 49.25L186.5 52.75L190 55.75L193.75 59.25L196.75 62.25L198.5 64.25L202 68.75L204 71.75L206.75 76L209 79.75L211 83.75L213 88L215.5 94.5L218.25 104.5L219.25 110.75L219.75 116.75V129L219.25 134.75L218.5 140L217 146L215.25 152L213.5 156.25L211.5 161L209.25 165.25L207.75 168L205.75 171.25L202.75 175.75L198.75 181L194.75 185.25L189.5 190.5L186.75 192.75L182.75 196L179.5 198.25L175.25 201L170.5 203.75L164.25 206.75L155.5 210L143.5 213L138 213.75L134.75 214H125.5L118.5 213.5L112.5 212.5L102.75 210L98.5 208.5L92.5 206L88.25 203.75L85.75 202.5L82.5 200.5L79 198.25L75.5 195.75L71 192.25L67.5 189L65.5 187.25L62.75 184.5L61 182.5L58.75 180L56.5 177L53.75 173L50.75 168.25L47 161.25L43.5 152.75L41.25 145.25L40.25 141L39.5 136.5L38.75 130V117L39.75 107.25L41 101L43.75 92L45.75 87L48.75 80.75L51.75 75.5L55.5 70L57.75 67L60 64.25L63.75 60.25L67.5 56.5L69.5 54.75L73.5 51.5L78 48.25L82.75 45.25L87.5 42.5L95.25 39L103 36.25L110 34.5L118.25 33L122.25 32.5L128 32.25ZM125.5 38.25L117.5 39L112.25 40L103.5 42.25L99.5 43.75L93.75 46.25L87.75 49.25L82 52.75L77.5 56L74 58.75L71 61.5L65.25 67.25L59.75 74.25L56.25 79.5L54.25 82.75L51.5 88.75L49.75 93L47.25 100.5L46 106.25L45 112.5L44.25 120V125.5L44.75 131.25L46.25 140.5L47.5 145.75L50.5 154.5L52.5 159L55.25 164.25L58.5 169.5L61.5 173.5L64 176.75L66.25 179.25L68 181.25L71.75 185L73.75 186.75L77.25 189.75L82 193.25L86.75 196.25L92.75 199.5L99.25 202.5L105.25 204.5L111.5 206.25L117.25 207.25L125.25 208H133.5L141.25 207.25L146 206.5L150.75 205.25L157.25 203.25L164.5 200.25L170 197.25L174.5 194.5L178.5 191.75L181.75 189.25L185.5 186L189.5 182.25L191.25 180.5L193 178.5L195.5 175.5L198.75 171L200.75 168L202.5 165.25L205.75 159.5L207.75 155L210.25 148.25L212 142L213.25 134.75L214 128V118.25L213.25 111L212 103.75L210 97.25L208 91.5L204.75 84.25L201.25 78.25L197.75 73.25L195.25 70L193 67.25L190 64L187.75 61.75L185.75 60L183.5 58L179.25 54.75L175 51.75L171.25 49.5L165.5 46.5L161 44.5L155.75 42.5L150.5 41L142.5 39.25L136.25 38.5L132 38.25H125.5Z" fill="#07395A"/>
<path d="M127 142.25H130L135.25 142.75L141.5 144L145.5 145.25L151.75 148L156.25 151L159.75 154L162.5 157L166 162L167.75 164.75L168 167L166.5 168.75L165.5 169.25L164 169L162.5 168L160.5 164.25L158 161L154.75 157.75L152.5 155.75L148.75 153.5L145.25 151.75L139.75 150L135.5 149L131.5 148.5H127L122 149.25L115.25 151.25L112.25 152.5L107.75 155L103.5 158.5L100.5 161.5L98.75 163.75L96 167.25L94.75 168H93L91.75 167.5L90.75 166L91 164.25L92.75 161.5L95 158.5L98.5 154.75L100.75 152.5L104.5 149.75L109 147L114.25 144.75L117.75 143.75L124 142.5L127 142.25Z" fill="#07395A"/>
<path d="M152 87.25L154 87.5L156 89.25L166.5 99.75L168.25 98.25L174.5 92L176.25 90.5L177.75 88.75L180 87.25H182L183.25 88L184 89.75L183.75 91.5L182.75 93L181 95L171.75 104.25L172.25 105.25L182.75 115.75L184 118.25L183.75 120L182.5 121.5L181 121.75L179 121L174 116L172 114.25L167.25 109.5H166.25L164.5 111.5L159 117L157 118.75L155.75 120.25L154 121.5L152 121.75L150.25 121L149.25 119.5V117.75L150.75 115.75L154.5 112L156.5 110.25L158.25 108.25L162 104.5L152.5 95L150.5 93.25L149.25 91.5V89.5L150.25 88L152 87.25Z" fill="#07395A"/>
<path d="M77.5 87.25H79.25L80.75 88.25L82.5 90L84.25 92L88.25 95.75L90 97.5L92.75 99.75L104.5 88L105.75 87.25H107.25L108.75 88.25L109.75 89.75V91.25L108 93.5L106 95.5L104.25 97.5L102.25 99.25L98.5 103L97 104.25V104.75L99 106.5L108.75 116.25L109.5 117.5L109.75 119.25L108.75 120.75L108 121.5H105.25L103.75 120.5L92.5 109.25L91.5 109.75L89.5 111.75L87.75 113.75L80.75 120.75L78.75 121.75L76.5 121.25L75.75 120.5L75.25 119.25L75.5 117.25L76.5 115.75L78.75 113.25L80.5 111.25L82.5 109.5L85.25 106.5L87.25 104.75V103.75L82.75 99.25L80.75 97.5L76.25 93L75.5 91.75L75.25 90L76 88.25L76.75 87.5L77.5 87.25Z" fill="#07395A"/>
<path d="M119.5 38.75H125.75V39L123.5 39.25L123 39.75L117.25 41L111 43L105.75 44.25L99 47L93.25 49.75L89 52L84.75 54.75L82.75 56.25H82.25V56.75L80 58.25L78.25 59.75H77.75V60.25L75.5 62L72.75 64.25L71.5 65.75L69.5 67.5L67.25 70.25L66 71.5L62.5 76.5L59.25 81.25L57.5 84L54.75 89.75L53 93.75L50 101.5L48.25 108.5L47.25 113.5L46.5 119.75L46.25 123.25V126.75L46.75 132.5L47.25 135.5L47.5 139.25L52 152.75L54 156.75L56 161L59.5 166.75L62.5 171L62.75 171.75H63.25L66 175.5L66.75 176.25V176.75H67.25L69.25 179.25L72 182L72.75 183.25L72.25 183.75L71 183.5L70.5 183L69.25 182.5L66.5 179.75L64.75 177.75L62 174.25L59.25 170.5L56.75 166.75L53.75 161.5L51.25 156.25L49 150.25L47 144L45.5 136.25L44.5 129.25L44.25 125.5V120L45.25 110.5L46.75 102.5L48.25 97.25L50.5 91L53.25 85L55 81.5L58 76.75L61.25 72.25L64.5 68.25L67.25 65.25L73 59.5L76.5 56.75L80.25 54L84 51.5L89.25 48.5L95.25 45.5L102 42.75L108.25 41L115.75 39.25L119.5 38.75Z" fill="#FCEBBB"/>
<path d="M126 140.75H132.75L138 141.5L141.5 142.5L145.25 143.25L148 144.5L154 147.25L157.5 149.25L160.75 151.75L163.25 154.25L168.25 161.25L170 164L170.5 165.5L170.25 167.5L169.5 169.25L167.25 170.75L165.75 171H163.5L162 170.25L159.75 167.75L157.25 163.5L153 159.25L152 158L149.5 156L148.5 155.25L146.25 154.5L144.75 153.5L144.25 152.25V151.75H142.25L141 152L139.75 151.25L139.5 151H136.75L134.25 150L132 149.5V149.25H129L125 150.75L116.75 153.5L114 154.75L111.5 156.25L109.25 158L107.5 159.75L105.5 161.5L103 164L100.75 166.75L97.75 169.25L95.75 170H93.5L91 169.25L89.25 167.75L89 167.25V164L90.25 161.5L92.5 158.5L94.75 156L99 151.75L101.5 150L104.25 148L107.25 146.25L110 144.75L113 143.5L121.5 141.5L124 141L126 140.75ZM127 142.25L122.5 142.75L116.5 144L111.75 145.75L107.75 147.75L103.75 150.25L100.25 153L96.25 157L94 159.75L91.25 163.75L90.75 164.75L91 166.5L92 167.75L93 168H94.75L96.25 167L99 163.5L101.25 160.75L104.25 157.75L108.25 154.75L113.75 151.75L121 149.5L124.75 148.75L127 148.5H131.5L137 149.25L143 151L147 152.5L151.75 155.25L154.5 157.5L155.75 158.5L159.25 162.5L161.5 166L162.5 168L164 169L165.5 169.25L167 168.25L168 167L167.75 164.75L164.25 159.5L162 156.5L159.25 153.5L156 150.75L151.25 147.75L144.25 144.75L138 143.25L133.75 142.5L129.5 142.25H127Z" fill="#FCE0B1"/>
<path d="M77.5 86.5L79.25 86.75L79.75 87.25L76.75 87.75L75.75 89L75.5 90.75L76.25 92.5L78 94.5L82.25 98.75L84.25 100.5L87.75 104L87.25 105L86 106.25L83.5 108.5L81.75 110.5L80.5 111.5L78.75 113.5L76.25 116.25L75.5 118L75.75 120L76 121L78.75 121.5L80.75 120.5L89 112.25L90.75 110.25L92 109L93 109.5L104.25 120.75L105.25 121.25H108L109.25 119.75L109.5 118.5L108.75 116.75L107 114.75L97.5 105.25L96.75 104.75L97.25 103.75L100.5 100.75L103.75 97.5L105.5 96L109 92L109.5 91.25V89.75L108.75 87.5L110.5 87.75L111.5 89L111.75 90.25V92.75L110.75 94.75L108.5 97.5L105 101L103.5 102.75L102.75 104L102.5 106L104.25 108.25L107.5 111.5V112H108V112.5H108.5V113H109L111.25 115.75L111.75 117V119.75L111 121.5L109.75 122.75L107.75 123.5H104.75L102.5 122.25L100.5 120.25L96.5 116.75V116.25H96V115.75H95.5L94.25 114.5L93.5 114L91.75 114.25L89.75 116.5L88 118L86.75 119.25L84.25 121.5L82 122.75L79.75 123.5H77.5L75 122.5L73.5 121L73.25 120.25V117.5L74.25 115.5L76.5 112.75H77L77.5 111.75L82 107.25L83.5 105V103.5L83 102.25L82 101.75L75.25 95L73.5 92.25L73.25 90L74 88.25L75.5 87L77 86.75L77.5 87V86.5Z" fill="#FCE0B1"/>
<path d="M139.5 39.25H142.5L151.5 41.25L158 43.25L164.5 46L170.5 49L175.75 52.25L179.25 54.75L182.75 57.5L185.5 59.75L187.25 61.5L189.25 63.25L192 66L196.5 71.5L199.75 76L202.75 80.75L205.5 85.75L208 91.5L211.25 101L211.5 102V104H210.25L209.5 103.75L208.25 101L206.75 95.75L204.75 90.75L202.75 86L200.75 82.5L200 81L199.25 80V79.5H198.75L197 76.5V76H196.5L193.5 71.75L189.5 66.75V66.25H189V65.75L188 65.25L185.5 63L182.25 60.5L180 59V58.5L179 58L175.75 55.5L172 52.75L168 50.25L163.25 48L160.5 46.75L156.5 45.25L153.5 44L150.5 43L145 41.75L142.25 40.75L140 40.25L139.5 39.75V39.25Z" fill="#FCEBBB"/>
<path d="M154.5 86.5L156 86.75L157.25 87.5V88H157.75V88.5L158.75 89L160.75 90.75L162.5 92.75L165.5 95.75L166.75 96L168.5 95.25L170.25 93.5L172.25 91.75L174.5 89.75L175.75 88.5L177.5 87.25L178.5 86.75H180.25L181.25 86.5L182 87L180 87.5L177.25 89.5L175 92L173 93.75L166.75 100L165 98.5L154.5 88L152.25 87L153.25 86.75L154.5 86.5Z" fill="#FCE0B1"/>
</svg>
